<svg width="81" height="48" viewBox="0 0 81 48" fill="none" xmlns="http://www.w3.org/2000/svg">
<path d="M60.6641 42.163C56.1885 42.163 53.3808 39.2719 53.3808 34.9074C53.3808 30.5152 56.1885 27.5963 60.3861 27.5963C64.4726 27.5963 67.2803 30.2372 67.2803 34.5182V35.0868C67.2803 35.3409 67.0743 35.5468 66.8203 35.5468H56.6889C56.5968 35.5468 56.5221 35.6215 56.5221 35.7136C56.5221 38.1043 58.1344 39.7166 60.4973 39.7166C62.2216 39.7166 63.517 38.9304 64.0307 37.5786C64.1046 37.3839 64.2838 37.2425 64.492 37.2425H66.5911C66.8778 37.2425 67.0956 37.5026 67.0185 37.7787C66.3167 40.293 63.964 42.163 60.6641 42.163ZM56.6986 32.8128C56.6321 33.0804 56.8482 33.3229 57.124 33.3229H63.7047C63.9802 33.3229 64.1961 33.081 64.1349 32.8124C63.7259 31.0187 62.35 30.0148 60.4139 30.0148C58.6834 30.0148 57.1393 31.0399 56.6986 32.8128Z" fill="#054E04"/>
<path d="M39.7084 41.9962C39.4544 41.9962 39.2484 41.7902 39.2484 41.5362V28.2231C39.2484 27.969 39.4544 27.7631 39.7084 27.7631H41.4294C41.6834 27.7631 41.8893 27.969 41.8893 28.2231V28.7822C41.8893 29.0609 42.2644 29.203 42.4765 29.0221C43.425 28.2133 44.89 27.5963 46.7542 27.5963C49.9232 27.5963 52.4807 29.3198 52.4807 34.0735V41.5362C52.4807 41.7902 52.2748 41.9962 52.0208 41.9962H49.9384C49.6844 41.9962 49.4785 41.7902 49.4785 41.5362V34.2958C49.4785 31.5994 48.3109 30.1816 46.087 30.1816C43.5573 30.1816 42.2785 31.7661 42.2785 34.4904V41.5362C42.2785 41.7902 42.0726 41.9962 41.8185 41.9962H39.7084Z" fill="#054E04"/>
<path d="M31.093 42.163C26.7564 42.163 23.8375 39.2441 23.8375 34.8796C23.8375 30.543 26.7564 27.5963 31.093 27.5963C35.4296 27.5963 38.3485 30.543 38.3485 34.8796C38.3485 39.2441 35.4296 42.163 31.093 42.163ZM31.093 39.6055C33.6227 39.6055 35.2906 37.6317 35.2906 34.8796C35.2906 32.1275 33.6227 30.1538 31.093 30.1538C28.5633 30.1538 26.9231 32.1275 26.9231 34.8796C26.9231 37.6317 28.5633 39.6055 31.093 39.6055Z" fill="#054E04"/>
<path d="M2.85419 41.9957C2.60014 41.9957 2.3942 41.7898 2.3942 41.5357V22.9964C2.3942 22.7424 2.60014 22.5365 2.85419 22.5365H6.2267C6.41385 22.5365 6.58234 22.6498 6.65282 22.8232L12.3332 36.796C12.4892 37.1797 13.033 37.178 13.1866 36.7934L18.7634 22.8259C18.8332 22.6511 19.0024 22.5365 19.1906 22.5365H22.4776C22.7317 22.5365 22.9376 22.7424 22.9376 22.9964V41.5357C22.9376 41.7898 22.7317 41.9957 22.4776 41.9957H20.3119C20.0579 41.9957 19.8519 41.7898 19.8519 41.5357V30.0256C19.8519 29.5208 19.1566 29.3845 18.966 29.8519L14.1309 41.7094C14.0603 41.8825 13.8919 41.9957 13.705 41.9957H11.6269C11.4399 41.9957 11.2715 41.8825 11.2009 41.7094L6.36581 29.8519C6.17522 29.3845 5.47988 29.5208 5.47988 30.0256V41.5357C5.47988 41.7898 5.27394 41.9957 5.0199 41.9957H2.85419Z" fill="#054E04"/>
<path d="M74.021 19.6265C69.5453 19.6265 66.7376 16.7354 66.7376 12.371C66.7376 7.97874 69.5453 5.05985 73.743 5.05985C77.8294 5.05985 80.6371 7.70075 80.6371 11.9818V12.5504C80.6371 12.8044 80.4312 13.0103 80.1771 13.0103H70.0457C69.9536 13.0103 69.8789 13.085 69.8789 13.1771C69.8789 15.5679 71.4913 17.1802 73.8542 17.1802C75.5784 17.1802 76.8738 16.394 77.3875 15.0421C77.4615 14.8475 77.6406 14.7061 77.8488 14.7061H79.948C80.2346 14.7061 80.4525 14.9662 80.3754 15.2423C79.6735 17.7565 77.3208 19.6265 74.021 19.6265ZM70.0555 10.2763C69.9889 10.544 70.205 10.7864 70.4808 10.7864H77.0616C77.3371 10.7864 77.553 10.5446 77.4917 10.276C77.0827 8.48221 75.7069 7.47836 73.7708 7.47836C72.0403 7.47836 70.4961 8.50344 70.0555 10.2763Z" fill="#054E04"/>
<path d="M43.5259 19.6236C39.1893 19.6236 36.2704 16.7047 36.2704 12.3403C36.2704 8.00366 39.1893 5.05697 43.5259 5.05697C47.8626 5.05697 50.7814 8.00366 50.7814 12.3403C50.7814 16.7047 47.8626 19.6236 43.5259 19.6236ZM43.5259 17.0661C46.0556 17.0661 47.7236 15.0924 47.7236 12.3403C47.7236 9.5882 46.0556 7.61448 43.5259 7.61448C40.9962 7.61448 39.3561 9.5882 39.3561 12.3403C39.3561 15.0924 40.9962 17.0661 43.5259 17.0661Z" fill="#054E04"/>
<path d="M58.2191 19.6261C59.8797 19.6261 61.1472 19.112 62.0439 18.3181C62.3188 18.0746 62.8514 18.2594 62.8471 18.6266L62.8429 18.994C62.84 19.2501 63.0468 19.4593 63.3029 19.4593H65.376C65.6301 19.4593 65.836 19.2533 65.836 18.9993V0.459986C65.836 0.205943 65.6301 0 65.376 0H63.2659C63.0119 0 62.8059 0.205943 62.8059 0.459986V6.09413C62.8059 6.3944 62.4669 6.5668 62.2184 6.39832C61.3018 5.77696 59.9881 5.05941 58.1913 5.05941C54.3272 5.05941 51.4639 7.75591 51.4639 12.3427C51.4639 16.7072 54.3272 19.6261 58.2191 19.6261ZM58.7195 17.0686C56.2176 17.0686 54.5496 15.1782 54.5496 12.3427C54.5496 9.53504 56.2176 7.61691 58.7195 7.61691C61.1936 7.61691 62.8615 9.53504 62.8615 12.3149C62.8615 15.1504 61.1936 17.0686 58.7195 17.0686Z" fill="#054E04"/>
<path d="M73.3156 37.3736C73.4623 37.7784 74.035 37.7778 74.1808 37.3726L77.532 28.0615C77.5977 27.879 77.7708 27.7573 77.9648 27.7573H80.1646C80.4885 27.7573 80.7133 28.0771 80.5954 28.3788C79.6661 30.7552 76.3355 39.2724 75.2485 42.046C73.9803 45.2817 71.9955 47.1212 69.4299 47.749C67.6109 48.194 65.6998 48.0214 64.0238 47.435C63.7895 47.353 63.6742 47.0934 63.7591 46.8601L64.4764 44.8874C64.566 44.6411 64.8426 44.5206 65.0905 44.6054C66.2489 45.0016 67.5363 45.1282 68.7009 44.8433C69.897 44.5506 71.1193 43.7838 71.9528 42.1042C72.008 41.9929 72.0118 41.8634 71.9673 41.7474L66.8448 28.3819C66.7294 28.0807 66.9517 27.7573 67.2743 27.7573H69.5074C69.701 27.7573 69.8739 27.8785 69.9399 28.0605L73.3156 37.3736Z" fill="#054E04"/>
<path fill-rule="evenodd" clip-rule="evenodd" d="M17.0462 9.93987C17.1428 10.199 17.4445 10.315 17.6884 10.1846C18.7331 9.62575 19.8358 8.98751 21.0004 8.26297C21.1348 8.17933 21.2163 8.03197 21.2163 7.87363V0.468611C21.2163 0.214567 21.4222 0.00862474 21.6762 0.00862474H23.7864C24.0405 0.00862474 24.2464 0.214568 24.2464 0.468611V6.09017C24.2464 6.3934 24.5922 6.5666 24.8431 6.39623C25.7408 5.78652 27.0875 5.06811 28.861 5.06811C32.725 5.06814 35.5883 7.76455 35.5883 12.3514C35.5883 16.7157 32.7251 19.6345 28.8333 19.6346C27.1728 19.6346 25.9052 19.1205 25.0085 18.3266C24.7335 18.0832 24.2009 18.268 24.2052 18.6352L24.2094 19.0025C24.2124 19.2586 24.0056 19.4678 23.7495 19.4678H21.6762C21.4222 19.4678 21.2163 19.2619 21.2163 19.0079V12.4737C21.2163 12.1178 20.8282 11.8969 20.5192 12.0735C14.9509 15.2561 10.5014 16.6108 6.92942 16.6718C6.73702 16.6751 6.56462 16.7934 6.49695 16.9735L5.67188 19.1696C5.60448 19.349 5.43292 19.4678 5.24127 19.4678H2.88711C2.56608 19.4678 2.34379 19.1473 2.45629 18.8467L3.24479 16.7394C3.33995 16.485 3.1949 16.2049 2.93601 16.1229C2.50694 15.987 2.09498 15.8278 1.69955 15.646C1.15744 15.3968 0.656141 15.1105 0.192272 14.7949C0.0237551 14.6803 -0.0416681 14.4653 0.026796 14.2733L0.756183 12.2282C0.867117 11.9172 1.26114 11.8202 1.5222 12.0224C1.95644 12.3588 2.43484 12.6548 2.96307 12.8976C5.18285 13.9179 8.63307 14.1474 13.9919 11.9433C14.2184 11.8501 14.33 11.5935 14.2456 11.3636L11.776 4.63756C11.6281 4.23494 11.0584 4.23587 10.9119 4.63896L8.44163 11.4345C8.30056 11.8226 7.95486 12.1039 7.54313 12.1353C6.79403 12.1923 6.1322 12.1727 5.54846 12.0992C5.26679 12.0637 5.10407 11.7715 5.20359 11.5056L9.39528 0.307358C9.46253 0.127688 9.63423 0.00862474 9.82607 0.00862474H13.0239C13.216 0.00862474 13.3878 0.127953 13.4549 0.307912L17.0462 9.93987ZM28.3328 7.62571C25.8587 7.62573 24.1907 9.5438 24.1907 12.3237C24.1908 15.1591 25.8587 17.0773 28.3328 17.0774C30.8347 17.0774 32.5025 15.1868 32.5025 12.3514C32.5025 9.54366 30.8347 7.62571 28.3328 7.62571Z" fill="#054E04"/>
<path d="M20.3674 18.8471C20.4795 19.1477 20.2572 19.4678 19.9364 19.4678H17.4704C17.2788 19.4678 17.1072 19.349 17.0398 19.1696L16.2352 17.0282C16.026 16.4716 16.2959 15.8507 16.8385 15.6076C17.3332 15.386 17.8364 15.1491 18.3482 14.8965C18.5943 14.7751 18.8925 14.8915 18.9883 15.1486L20.3674 18.8471Z" fill="#054E04"/>
</svg>
